<svg xmlns="http://www.w3.org/2000/svg" viewBox="0 0 512 512" width="512" height="512">
  <rect width="512" height="512" rx="112" fill="#0E1B10"/>
  <!-- stem -->
  <path d="M256 400V238" stroke="#E67E22" stroke-width="20" stroke-linecap="round"/>
  <!-- right leaf -->
  <path d="M256 246c0-64 44-118 108-130 10 66-34 124-96 138-4 1-8 0-10-2-1-2-2-4-2-6z" fill="#4C8A50"/>
  <!-- left leaf -->
  <path d="M256 300c0-58-40-108-98-119-9 60 31 113 88 126 4 1 7 0 9-2 1-1 1-3 1-5z" fill="#2E5C31"/>
</svg>
